<svg width="119" height="40" viewBox="0 0 119 40" fill="none" xmlns="http://www.w3.org/2000/svg">
<rect width="119" height="40" rx="20" fill="black" fill-opacity="0.05"/>
<path d="M27.9989 15.4789C27.9985 15.4653 27.998 15.4518 27.9969 15.4381C27.9957 15.4244 27.994 15.4109 27.9922 15.3975C27.9912 15.3905 27.9909 15.3836 27.9898 15.3766L27.2398 10.8766C27.2237 10.7794 27.1885 10.6863 27.1364 10.6027C27.0843 10.5191 27.0162 10.4466 26.936 10.3893C26.8559 10.332 26.7652 10.291 26.6692 10.2688C26.5732 10.2466 26.4738 10.2435 26.3766 10.2597C26.2794 10.2759 26.1864 10.3111 26.1028 10.3632C26.0192 10.4154 25.9467 10.4835 25.8895 10.5637C25.8322 10.6439 25.7913 10.7346 25.7692 10.8306C25.747 10.9266 25.7439 11.0261 25.7602 11.1233L26.3646 14.7499H24.625V10.9999C24.625 10.801 24.546 10.6103 24.4053 10.4696C24.2647 10.3289 24.0739 10.2499 23.875 10.2499C23.6761 10.2499 23.4853 10.3289 23.3447 10.4696C23.204 10.6103 23.125 10.801 23.125 10.9999V14.7499H21.3854L21.9898 11.1233C22.0061 11.0261 22.003 10.9266 21.9808 10.8306C21.9587 10.7346 21.9178 10.6439 21.8605 10.5637C21.8033 10.4835 21.7308 10.4154 21.6472 10.3632C21.5636 10.3111 21.4706 10.2759 21.3734 10.2597C21.2762 10.2435 21.1768 10.2466 21.0808 10.2688C20.9848 10.291 20.8941 10.332 20.814 10.3893C20.7338 10.4466 20.6657 10.5191 20.6136 10.6027C20.5615 10.6863 20.5263 10.7794 20.5102 10.8766L19.7602 15.3766C19.7591 15.3836 19.7588 15.3905 19.7578 15.3975C19.756 15.4109 19.7543 15.4244 19.7531 15.4381C19.752 15.4518 19.7515 15.4653 19.751 15.4789C19.7509 15.4859 19.75 15.4928 19.75 15.4999C19.75 15.5066 19.7505 15.5132 19.7505 15.5198C19.7506 15.5244 19.7506 15.529 19.7509 15.5336C19.7599 16.4911 20.1014 17.4158 20.7169 18.1494C21.3323 18.883 22.1836 19.38 23.125 19.5553V28.9999C23.125 29.1988 23.204 29.3896 23.3447 29.5303C23.4853 29.6709 23.6761 29.7499 23.875 29.7499C24.0739 29.7499 24.2647 29.6709 24.4053 29.5303C24.546 29.3896 24.625 29.1988 24.625 28.9999V19.5553C25.5664 19.38 26.4177 18.883 27.0331 18.1494C27.6486 17.4158 27.9901 16.4911 27.9991 15.5336C27.9994 15.529 27.9994 15.5244 27.9995 15.5198C27.9995 15.5132 28 15.5066 28 15.4999C28 15.4928 27.9991 15.4859 27.9989 15.4789Z" fill="black"/>
<path d="M35.8743 10.9867C35.8741 10.9713 35.8732 10.9558 35.872 10.9403C35.8711 10.9297 35.8702 10.9193 35.8689 10.9089C35.8673 10.896 35.8653 10.883 35.863 10.87C35.8607 10.857 35.8582 10.8441 35.8553 10.8313C35.8529 10.8212 35.8502 10.811 35.8474 10.8009C35.8433 10.7859 35.8388 10.771 35.8337 10.7564C35.8323 10.7522 35.8314 10.7479 35.8299 10.7437C35.8282 10.7392 35.826 10.735 35.8243 10.7305C35.8186 10.7158 35.8125 10.7013 35.806 10.6872C35.8018 10.6779 35.7974 10.6688 35.7928 10.6598C35.7866 10.6477 35.7801 10.6358 35.7733 10.6241C35.7672 10.6136 35.7611 10.6033 35.7546 10.5932C35.7484 10.5837 35.7419 10.5745 35.7353 10.5652C35.7274 10.554 35.7194 10.5431 35.7108 10.5325C35.7046 10.5247 35.6981 10.5171 35.6916 10.5096C35.6822 10.4987 35.6727 10.4881 35.6628 10.4779C35.6558 10.4707 35.6486 10.4639 35.6414 10.457C35.6314 10.4475 35.6213 10.4381 35.6108 10.4292C35.6024 10.422 35.5937 10.4153 35.5849 10.4084C35.5751 10.4008 35.5653 10.3933 35.5551 10.3861C35.5447 10.3789 35.534 10.372 35.5233 10.3653C35.5141 10.3596 35.505 10.3538 35.4956 10.3485C35.4834 10.3416 35.4709 10.3351 35.4583 10.3289C35.4496 10.3246 35.441 10.3203 35.4322 10.3163C35.4189 10.3103 35.4054 10.3049 35.3917 10.2997C35.3827 10.2963 35.3737 10.2928 35.3644 10.2897C35.3513 10.2853 35.338 10.2814 35.3246 10.2777C35.3139 10.2747 35.3032 10.2719 35.2924 10.2694C35.2805 10.2667 35.2685 10.2644 35.2564 10.2622C35.2432 10.2598 35.2301 10.2578 35.2167 10.2562C35.2065 10.2549 35.1963 10.2539 35.1859 10.2531C35.1706 10.2518 35.1552 10.2511 35.1396 10.2507C35.1347 10.2506 35.1299 10.25 35.125 10.25C35.1205 10.25 35.116 10.2506 35.1115 10.2507C35.0962 10.251 35.0808 10.2518 35.0653 10.253C35.0548 10.2538 35.0443 10.2548 35.0339 10.2561C35.0209 10.2577 35.008 10.2597 34.995 10.262C34.982 10.2643 34.9691 10.2668 34.9563 10.2698C34.9461 10.2721 34.936 10.2748 34.9259 10.2776C34.9109 10.2817 34.896 10.2862 34.8814 10.2913C34.8772 10.2927 34.8729 10.2936 34.8687 10.2951C34.8594 10.2985 34.8503 10.3025 34.8411 10.306C34.8377 10.3074 34.8341 10.3086 34.8306 10.3101C32.8984 11.0363 31.3511 13.4066 30.2315 17.3581C29.7236 19.1814 29.3552 21.0408 29.1293 22.9201C29.1181 23.0247 29.129 23.1305 29.1614 23.2306C29.1938 23.3308 29.2468 23.423 29.3172 23.5012C29.3875 23.5795 29.4735 23.6421 29.5696 23.685C29.6657 23.7278 29.7698 23.75 29.875 23.75H34.375V29C34.375 29.1989 34.454 29.3897 34.5947 29.5303C34.7353 29.671 34.9261 29.75 35.125 29.75C35.3239 29.75 35.5147 29.671 35.6553 29.5303C35.796 29.3897 35.875 29.1989 35.875 29V11C35.875 10.9955 35.8744 10.9912 35.8743 10.9867Z" fill="black"/>
<path d="M59.5753 18.1293C59.2273 15.9517 57.522 14.679 55.3693 14.679C52.7344 14.679 50.7905 16.6527 50.7905 19.9091C50.7905 23.1655 52.7244 25.1392 55.3693 25.1392C57.6065 25.1392 59.2422 23.7372 59.5753 21.7237L58.0241 21.7188C57.7607 23.0213 56.6669 23.7372 55.3793 23.7372C53.6342 23.7372 52.3168 22.3999 52.3168 19.9091C52.3168 17.4382 53.6293 16.081 55.3842 16.081C56.6818 16.081 57.7706 16.8118 58.0241 18.1293H59.5753ZM62.5007 20.4659C62.5007 19.2479 63.2713 18.5518 64.3303 18.5518C65.3544 18.5518 65.9659 19.2031 65.9659 20.3217V25H67.4524V20.1428C67.4524 18.2386 66.4084 17.2642 64.8374 17.2642C63.6492 17.2642 62.9332 17.7812 62.5753 18.6065H62.4808V14.8182H61.0142V25H62.5007V20.4659ZM69.1561 25H70.6426V17.3636H69.1561V25ZM69.9068 16.1854C70.4189 16.1854 70.8464 15.7876 70.8464 15.3004C70.8464 14.8132 70.4189 14.4105 69.9068 14.4105C69.3898 14.4105 68.9672 14.8132 68.9672 15.3004C68.9672 15.7876 69.3898 16.1854 69.9068 16.1854ZM75.579 25.1541C77.3837 25.1541 78.552 24.0703 78.7161 22.5838H77.2694C77.0805 23.4091 76.4391 23.8963 75.589 23.8963C74.3312 23.8963 73.5208 22.8473 73.5208 21.1818C73.5208 19.5462 74.3461 18.517 75.589 18.517C76.5336 18.517 77.1103 19.1136 77.2694 19.8295H78.7161C78.557 18.2884 77.2992 17.2642 75.5641 17.2642C73.4114 17.2642 72.0194 18.8849 72.0194 21.2166C72.0194 23.5185 73.3617 25.1541 75.579 25.1541ZM80.0258 25H81.5123V22.2905L82.253 21.5497L84.8482 25H86.6728L83.3717 20.6399L86.464 17.3636H84.6842L81.6415 20.5952H81.5123V14.8182H80.0258V25ZM90.5155 25.1541C92.181 25.1541 93.3592 24.3338 93.6973 23.0909L92.2903 22.8374C92.0219 23.5582 91.3756 23.9261 90.5304 23.9261C89.2577 23.9261 88.4026 23.1009 88.3628 21.6293H93.7918V21.1023C93.7918 18.343 92.1412 17.2642 90.4111 17.2642C88.2832 17.2642 86.8812 18.8849 86.8812 21.2315C86.8812 23.603 88.2634 25.1541 90.5155 25.1541ZM88.3678 20.5156C88.4274 19.4318 89.2129 18.4922 90.421 18.4922C91.5744 18.4922 92.3301 19.3473 92.3351 20.5156H88.3678ZM96.6476 20.4659C96.6476 19.2479 97.3933 18.5518 98.4274 18.5518C99.4367 18.5518 100.048 19.2131 100.048 20.3217V25H101.535V20.1428C101.535 18.2536 100.496 17.2642 98.9345 17.2642C97.7861 17.2642 97.0354 17.7962 96.6824 18.6065H96.5879V17.3636H95.1611V25H96.6476V20.4659Z" fill="black" fill-opacity="0.6"/>
</svg>
